<svg width="24" height="24" viewBox="0 0 24 24" fill="none" xmlns="http://www.w3.org/2000/svg">
<g clip-path="url(#clip0_97_14)">
<path d="M0 3C0 3.79565 0.31607 4.55871 0.87868 5.12132C1.44129 5.68393 2.20435 6 3 6C3.79565 6 4.55871 5.68393 5.12132 5.12132C5.68393 4.55871 6 3.79565 6 3C6 2.20435 5.68393 1.44129 5.12132 0.87868C4.55871 0.31607 3.79565 0 3 0C2.20435 0 1.44129 0.31607 0.87868 0.87868C0.31607 1.44129 0 2.20435 0 3ZM9 21C9 21.7956 9.31607 22.5587 9.87868 23.1213C10.4413 23.6839 11.2044 24 12 24C12.7956 24 13.5587 23.6839 14.1213 23.1213C14.6839 22.5587 15 21.7956 15 21C15 20.2044 14.6839 19.4413 14.1213 18.8787C13.5587 18.3161 12.7956 18 12 18C11.2044 18 10.4413 18.3161 9.87868 18.8787C9.31607 19.4413 9 20.2044 9 21ZM9 12C9 12.7956 9.31607 13.5587 9.87868 14.1213C10.4413 14.6839 11.2044 15 12 15C12.7956 15 13.5587 14.6839 14.1213 14.1213C14.6839 13.5587 15 12.7956 15 12C15 11.2044 14.6839 10.4413 14.1213 9.87868C13.5587 9.31607 12.7956 9 12 9C11.2044 9 10.4413 9.31607 9.87868 9.87868C9.31607 10.4413 9 11.2044 9 12ZM9 3C9 3.79565 9.31607 4.55871 9.87868 5.12132C10.4413 5.68393 11.2044 6 12 6C12.7956 6 13.5587 5.68393 14.1213 5.12132C14.6839 4.55871 15 3.79565 15 3C15 2.20435 14.6839 1.44129 14.1213 0.87868C13.5587 0.31607 12.7956 0 12 0C11.2044 0 10.4413 0.31607 9.87868 0.87868C9.31607 1.44129 9 2.20435 9 3ZM18 3C18 3.79565 18.3161 4.55871 18.8787 5.12132C19.4413 5.68393 20.2044 6 21 6C21.7956 6 22.5587 5.68393 23.1213 5.12132C23.6839 4.55871 24 3.79565 24 3C24 2.20435 23.6839 1.44129 23.1213 0.87868C22.5587 0.31607 21.7956 0 21 0C20.2044 0 19.4413 0.31607 18.8787 0.87868C18.3161 1.44129 18 2.20435 18 3Z" fill="black"/>
</g>
<defs>
<clipPath id="clip0_97_14">
<rect width="24" height="24" fill="white"/>
</clipPath>
</defs>
</svg>
